<svg xmlns="http://www.w3.org/2000/svg" viewBox="0 0 48 48">
  <path fill="#7c4dff" d="M24,4C12.972,4,4,12.972,4,24s8.972,20,20,20s20-8.972,20-20S35.028,4,24,4z"/>
  <path fill="#fff" d="M27.769,21.236c0-1.101,0.889-1.523,2.346-1.523c2.101,0,4.748,0.644,6.849,1.789v-6.482 c-2.288-0.91-4.552-1.267-6.849-1.267c-5.605,0-9.332,2.929-9.332,7.82c0,7.634,10.505,6.416,10.505,9.711 c0,1.303-1.125,1.724-2.695,1.724c-2.33,0-5.31-0.957-7.669-2.246v6.556c2.612,1.124,5.255,1.6,7.669,1.6 c5.745,0,9.693-2.839,9.693-7.806C38.284,22.896,27.769,24.384,27.769,21.236z"/>
</svg>
