<svg xmlns="http://www.w3.org/2000/svg" viewBox="0 0 109 113">
  <defs>
    <linearGradient id="supabase-grad-1" x1="53.974%" x2="94.163%" y1="54.974%" y2="71.829%">
      <stop offset="0%" stop-color="#249361"/>
      <stop offset="100%" stop-color="#3ECF8E"/>
    </linearGradient>
    <linearGradient id="supabase-grad-2" x1="36.156%" x2="54.484%" y1="30.578%" y2="80.703%">
      <stop offset="0%"/>
      <stop offset="100%" stop-opacity="0"/>
    </linearGradient>
  </defs>
  <path fill="url(#supabase-grad-1)" d="M63.708 110.284c-2.86 3.601-8.658 1.628-8.727-2.97l-1.007-67.251h45.22c8.19 0 12.758 9.46 7.665 15.874l-43.151 54.347z"/>
  <path fill="url(#supabase-grad-2)" fill-opacity=".2" d="M63.708 110.284c-2.86 3.601-8.658 1.628-8.727-2.97l-1.007-67.251h45.22c8.19 0 12.758 9.46 7.665 15.874l-43.151 54.347z"/>
  <path fill="#3ECF8E" d="M45.317 2.071c2.86-3.601 8.657-1.628 8.726 2.97l.442 67.251H9.83c-8.19 0-12.759-9.46-7.665-15.875L45.317 2.071z"/>
</svg>
